<svg width="32" height="32" viewBox="0 0 32 32" fill="none" xmlns="http://www.w3.org/2000/svg">
<path d="M16 2.66666C16.7364 2.66666 17.3333 3.26362 17.3333 4V19.4477L21.7238 15.0572C22.2445 14.5365 23.0888 14.5365 23.6095 15.0572C24.1302 15.5779 24.1302 16.4221 23.6095 16.9428L16.9428 23.6095C16.4221 24.1302 15.5779 24.1302 15.0572 23.6095L8.39051 16.9428C7.86982 16.4221 7.86982 15.5779 8.39051 15.0572C8.91121 14.5365 9.75543 14.5365 10.2761 15.0572L14.6667 19.4477V4C14.6667 3.26362 15.2636 2.66666 16 2.66666Z" fill="#EBEFF2"/>
<path d="M3.99999 18.6667C4.73637 18.6667 5.33332 19.2636 5.33332 20V25.3333C5.33332 26.0697 5.93028 26.6667 6.66666 26.6667H25.3333C26.0697 26.6667 26.6667 26.0697 26.6667 25.3333V20C26.6667 19.2636 27.2636 18.6667 28 18.6667C28.7364 18.6667 29.3333 19.2636 29.3333 20V25.3333C29.3333 27.5425 27.5425 29.3333 25.3333 29.3333H6.66666C4.45752 29.3333 2.66666 27.5425 2.66666 25.3333V20C2.66666 19.2636 3.26361 18.6667 3.99999 18.6667Z" fill="#EBEFF2"/>
</svg>
