<svg width="32" height="32" viewBox="0 0 32 32" fill="none" xmlns="http://www.w3.org/2000/svg">
<path d="M21.0636 2.82292C21.2728 2.82292 21.4842 2.83374 21.6989 2.85431C23.2433 3.0026 24.7274 3.68778 25.7725 4.73233C26.8198 5.77795 27.4723 7.25439 27.5619 8.78278C27.6578 10.4216 27.1218 11.9186 26.053 12.9967L16.4334 22.6487C14.9849 24.1089 12.6207 24.1132 11.1636 22.6574C10.4582 21.9516 10.0688 21.0131 10.0667 20.0141C10.0645 19.015 10.4506 18.0744 11.1528 17.3675L17.8873 10.7149C18.4298 10.1759 19.3056 10.1856 19.8394 10.7301C20.3744 11.2756 20.3679 12.1524 19.8243 12.6893L13.0996 19.3321C12.927 19.5064 12.8267 19.75 12.8278 20.0087C12.8278 20.2674 12.9292 20.5109 13.1114 20.6938C13.2948 20.8768 13.5375 20.9763 13.7952 20.9763L13.7963 20.9763C14.0541 20.9763 14.2968 20.8757 14.479 20.6917L24.0986 11.0396C25.1588 9.9702 25.0294 7.89951 23.8247 6.69585C23.2326 6.10485 22.3395 5.70002 21.4346 5.61234C20.9255 5.5658 19.9678 5.57879 19.3185 6.23257L8.50063 17.006C7.57631 17.9358 7.11253 19.278 7.19882 20.7772C7.2851 22.2666 7.91066 23.6976 8.91587 24.7021C11.0331 26.8171 14.6947 26.9979 16.5984 25.0788L24.3866 17.2311C24.9248 16.6878 25.7984 16.6878 26.3388 17.2268C26.8791 17.7669 26.8813 18.6437 26.3431 19.186L18.5549 27.0336C15.5802 30.0341 10.1659 29.8598 6.96801 26.6656C5.48716 25.1859 4.56715 23.0979 4.44204 20.9374C4.30938 18.6394 5.05789 16.547 6.54953 15.0446L17.3674 4.27121C18.3036 3.32842 19.6 2.82292 21.0636 2.82292Z" fill="#36393F"/>
</svg>
